<?xml version="1.0" encoding="UTF-8" standalone="no"?>
<!DOCTYPE svg PUBLIC "-//W3C//DTD SVG 1.1//EN" "http://www.w3.org/Graphics/SVG/1.1/DTD/svg11.dtd">
<svg width="100%" height="100%" viewBox="0 0 284 68" version="1.1" xmlns="http://www.w3.org/2000/svg" xmlns:xlink="http://www.w3.org/1999/xlink" xml:space="preserve" xmlns:serif="http://www.serif.com/" style="fill-rule:evenodd;clip-rule:evenodd;stroke-linejoin:round;stroke-miterlimit:2;">
    <g>
        <g>
            <g>
                <path d="M70.3,67.3L83.2,67.3C83.9,67.3 84.5,66.7 84.5,66L84.5,53.1C84.5,52.4 83.9,51.8 83.2,51.8L70.3,51.8C69.6,51.8 69,52.4 69,53.1L69,66C69,66.7 69.6,67.3 70.3,67.3Z" style="fill:rgb(0,64,152);fill-rule:nonzero;"/>
            </g>
            <g>
                <path d="M135.1,0L104.9,0C104.2,0 103.6,0.6 103.6,1.3L103.6,48.8C103.6,49.5 104.2,50.1 104.9,50.1L135.1,50.1C135.8,50.1 136.4,49.5 136.4,48.8L136.4,1.3C136.4,0.6 135.8,0 135.1,0ZM119.7,33.7C119.2,33.7 118.8,33.3 118.8,32.8L118.8,17.3C118.8,16.8 119.2,16.4 119.7,16.4C120.2,16.4 120.6,16.8 120.6,17.3L120.6,32.8C120.6,33.3 120.2,33.7 119.7,33.7Z" style="fill:rgb(0,64,152);fill-rule:nonzero;"/>
            </g>
            <g>
                <path d="M87.6,67.3L100.5,67.3C101.2,67.3 101.8,66.7 101.8,66L101.8,53.1C101.8,52.4 101.2,51.8 100.5,51.8L87.6,51.8C86.9,51.8 86.3,52.4 86.3,53.1L86.3,66C86.3,66.7 86.9,67.3 87.6,67.3Z" style="fill:rgb(0,64,152);fill-rule:nonzero;"/>
            </g>
            <g>
                <path d="M136.4,66L136.4,53.1C136.4,52.4 135.8,51.8 135.1,51.8L104.9,51.8C104.2,51.8 103.6,52.4 103.6,53.1L103.6,66C103.6,66.7 104.2,67.3 104.9,67.3L135.1,67.3C135.8,67.3 136.4,66.7 136.4,66Z" style="fill:rgb(0,64,152);fill-rule:nonzero;"/>
            </g>
            <g>
                <path d="M16.8,15.5L31.5,15.5C32.2,15.5 32.8,14.9 32.8,14.2L32.8,1.3C32.8,0.6 32.2,0 31.5,0L1.3,0C0.6,0 0,0.6 0,1.3L0,66C0,66.7 0.6,67.3 1.3,67.3L31.5,67.3C32.2,67.3 32.8,66.7 32.8,66L32.8,53.1C32.8,52.4 32.2,51.8 31.5,51.8L16.8,51.8C16.1,51.8 15.5,51.2 15.5,50.5L15.5,16.8C15.5,16.1 16.1,15.5 16.8,15.5Z" style="fill:rgb(0,64,152);fill-rule:nonzero;"/>
            </g>
            <g>
                <path d="M17.3,18.6L17.3,48.8C17.3,49.5 17.9,50.1 18.6,50.1L31.5,50.1C32.2,50.1 32.8,49.5 32.8,48.8L32.8,18.6C32.8,17.9 32.2,17.3 31.5,17.3L18.6,17.3C17.8,17.3 17.3,17.8 17.3,18.6Z" style="fill:rgb(0,64,152);fill-rule:nonzero;"/>
            </g>
            <g>
                <path d="M69,1.3L69,14.2C69,14.9 69.6,15.5 70.3,15.5L85,15.5C85.7,15.5 86.3,16.1 86.3,16.8L86.3,32.8C86.3,33.3 85.9,33.7 85.4,33.7C84.9,33.7 84.5,33.3 84.5,32.8L84.5,18.6C84.5,17.9 83.9,17.3 83.2,17.3L70.3,17.3C69.6,17.3 69,17.9 69,18.6L69,48.8C69,49.5 69.6,50.1 70.3,50.1L100.5,50.1C101.2,50.1 101.8,49.5 101.8,48.8L101.8,1.3C101.8,0.6 101.2,0 100.5,0L70.3,0C69.6,0 69,0.6 69,1.3Z" style="fill:rgb(0,64,152);fill-rule:nonzero;"/>
            </g>
            <g>
                <path d="M66,0L35.8,0C35.1,0 34.5,0.6 34.5,1.3L34.5,66C34.5,66.7 35.1,67.3 35.8,67.3L48.7,67.3C49.4,67.3 50,66.7 50,66L50,17.3C50,16.8 50.4,16.4 50.9,16.4C51.4,16.4 51.8,16.8 51.8,17.3L51.8,66.1C51.8,66.8 52.4,67.4 53.1,67.4L66,67.4C66.7,67.4 67.3,66.8 67.3,66.1L67.3,1.3C67.3,0.6 66.7,0 66,0Z" style="fill:rgb(0,64,152);fill-rule:nonzero;"/>
            </g>
        </g>
        <g>
            <g>
                <g>
                    <path d="M167.6,36.5C168.4,36.3 169.1,36.4 169.7,36.8C170.4,37.2 170.7,37.8 170.7,38.6L170.7,39C170.7,40 170.4,40.9 169.8,41.7C169.2,42.5 168.5,43 167.6,43.2C165.9,43.6 164.1,43.8 162.1,43.8C152.1,43.8 147.2,36.6 147.2,22.2C147.2,14.7 148.4,9.3 150.9,5.8C153.4,2.4 157,0.6 161.8,0.6C163.8,0.6 165.6,0.8 167.3,1.2C168.2,1.4 169,1.9 169.5,2.7C170.1,3.5 170.4,4.4 170.4,5.4L170.4,5.5C170.4,6.3 170.1,6.9 169.4,7.4C168.7,7.9 168,8 167.3,7.8C166,7.5 164.7,7.3 163.2,7.3C160.4,7.3 158.3,8.4 156.9,10.7C155.5,12.9 154.9,16.8 154.9,22.3C154.9,32.3 157.8,37.2 163.5,37.2C164.8,37.1 166.2,36.9 167.6,36.5Z" style="fill:rgb(0,64,152);fill-rule:nonzero;"/>
                    <path d="M175.8,28.2C175.8,17.9 180,12.7 188.4,12.7C196.8,12.7 201,17.9 201,28.2C201,38.5 196.8,43.7 188.4,43.7C180,43.7 175.8,38.5 175.8,28.2ZM184.9,35.6C185.6,36.9 186.8,37.5 188.5,37.5C190.2,37.5 191.4,36.9 192.1,35.6C192.8,34.3 193.1,31.8 193.1,28.2C193.1,24.5 192.8,22 192.1,20.8C191.4,19.5 190.2,18.9 188.5,18.9C186.8,18.9 185.6,19.5 184.9,20.8C184.2,22.1 183.9,24.6 183.9,28.2C183.9,31.8 184.2,34.3 184.9,35.6Z" style="fill:rgb(0,64,152);fill-rule:nonzero;"/>
                    <path d="M225.7,0C226.6,0 227.3,0.3 228,1C228.7,1.6 229,2.4 229,3.3L229,39.8C229,40.7 228.7,41.4 228,42.1C227.3,42.8 226.6,43.1 225.7,43.1L224.7,43.1C223.8,43.1 223,42.8 222.3,42.2C221.6,41.6 221.3,40.8 221.3,39.9L221.3,39.2C221.3,39.2 221.3,39.1 221.2,39.1C221.1,39.1 221.1,39.1 221.1,39.2C220,40.9 218.9,42.1 217.9,42.7C216.9,43.4 215.7,43.7 214.3,43.7C211.2,43.7 208.8,42.4 207,39.8C205.2,37.2 204.3,33.3 204.3,28.2C204.3,23 205.2,19.1 206.9,16.5C208.7,14 211.1,12.7 214.3,12.7C216.8,12.7 219,14.1 220.9,17C220.9,17 220.9,17.1 221,17.1C221,17.1 221.1,17.1 221.1,17L221.1,3.3C221.1,2.4 221.4,1.7 222.1,1C222.8,0.3 223.5,0 224.4,0L225.7,0ZM221.2,28.4L221.2,27.8C221.2,22.2 219.7,19.5 216.6,19.5C213.6,19.5 212.1,22.4 212.1,28.1C212.1,31.1 212.5,33.2 213.3,34.6C214.1,36 215.2,36.7 216.5,36.7C219.7,36.8 221.2,34 221.2,28.4Z" style="fill:rgb(0,64,152);fill-rule:nonzero;"/>
                    <path d="M246.5,12.6C254.1,12.6 258,17.7 258,28C258,28.9 257.7,29.7 257,30.3C256.3,30.9 255.5,31.2 254.6,31.2L242.5,31.2C242.2,31.2 242,31.4 242.1,31.7C242.4,33.9 243,35.4 244,36.2C245,37 246.5,37.5 248.5,37.5C250,37.5 251.5,37.3 253.3,36.8C254.1,36.6 254.8,36.7 255.4,37.2C256,37.7 256.3,38.3 256.3,39C256.3,40 256,40.8 255.4,41.6C254.8,42.3 254.1,42.8 253.2,43C251.3,43.4 249.4,43.6 247.4,43.6C243.1,43.6 239.8,42.3 237.4,39.7C235,37.1 233.9,33.2 233.9,28.1C233.9,17.8 238.1,12.6 246.5,12.6ZM249.6,25.3C249.9,25.3 250.1,25.1 250.1,24.8C250.1,22.5 249.8,21 249.2,20.1C248.6,19.2 247.7,18.8 246.5,18.8C245,18.8 243.9,19.2 243.3,20C242.6,20.8 242.2,22.4 242.1,24.8C242.1,25.1 242.3,25.3 242.6,25.3L249.6,25.3Z" style="fill:rgb(0,64,152);fill-rule:nonzero;"/>
                </g>
                <g>
                    <g>
                        <path d="M181.7,49C182.1,49 182.4,49.1 182.7,49.4C183,49.7 183.1,50 183.1,50.4C183.1,50.8 183,51.1 182.7,51.4C182.4,51.7 182.1,51.8 181.7,51.8L180.7,51.8C180.6,51.8 180.5,51.9 180.5,52L180.5,64C180.5,64.1 180.6,64.2 180.7,64.2L181.7,64.2C182.1,64.2 182.4,64.3 182.7,64.6C183,64.9 183.1,65.2 183.1,65.6C183.1,66 183,66.3 182.7,66.6C182.4,66.9 182.1,67 181.7,67L175.6,67C175.2,67 174.9,66.9 174.6,66.6C174.3,66.3 174.2,66 174.2,65.6C174.2,65.2 174.3,64.9 174.6,64.6C174.9,64.3 175.2,64.2 175.6,64.2L176.6,64.2C176.7,64.2 176.8,64.1 176.8,64L176.8,52.1C176.8,52 176.7,51.9 176.6,51.9L175.6,51.9C175.2,51.9 174.9,51.8 174.6,51.5C174.3,51.2 174.2,50.9 174.2,50.5C174.2,50.1 174.3,49.8 174.6,49.5C174.9,49.2 175.2,49.1 175.6,49.1L181.7,49.1L181.7,49Z" style="fill:rgb(0,64,152);fill-rule:nonzero;"/>
                        <path d="M195.3,54C196.1,54 196.7,54.3 197,54.9C197.3,55.5 197.5,56.6 197.5,58.2L197.5,65.7C197.5,66.1 197.4,66.4 197.1,66.7C196.8,67 196.5,67.1 196.1,67.1L195.7,67.1C195.3,67.1 195,67 194.7,66.7C194.4,66.4 194.3,66.1 194.3,65.7L194.3,58.7C194.3,58 194.1,57.7 193.8,57.7C193.7,57.7 193.6,57.7 193.5,57.8C193.4,57.9 193.4,58.1 193.3,58.4C193.3,58.7 193.2,59.1 193.2,59.7L193.2,65.7C193.2,66.1 193.1,66.4 192.8,66.7C192.5,67 192.2,67.1 191.8,67.1L191.4,67.1C191,67.1 190.7,67 190.4,66.7C190.1,66.4 190,66.1 190,65.7L190,58.7C190,58 189.8,57.7 189.5,57.7C189.4,57.7 189.3,57.7 189.2,57.8C189.1,57.9 189.1,58.1 189,58.4C189,58.7 188.9,59.1 188.9,59.7L188.9,65.7C188.9,66.1 188.8,66.4 188.5,66.7C188.2,67 187.9,67.1 187.5,67.1L187,67.1C186.6,67.1 186.3,67 186,66.7C185.7,66.4 185.6,66.1 185.6,65.7L185.6,55.7C185.6,55.3 185.7,55 186,54.7C186.3,54.4 186.6,54.3 187,54.3L187.1,54.3C187.5,54.3 187.8,54.4 188.1,54.7C188.4,55 188.5,55.3 188.5,55.7L188.5,55.9C188.7,55.3 189.1,54.9 189.5,54.6C189.9,54.3 190.3,54.1 190.7,54.1C191.1,54.1 191.5,54.2 191.8,54.5C192.1,54.8 192.4,55.2 192.6,55.9C193.6,54.6 194.4,54 195.3,54Z" style="fill:rgb(0,64,152);fill-rule:nonzero;"/>
                        <path d="M205.1,54C206.9,54 208.2,54.4 208.9,55.1C209.6,55.8 210,57.2 210,59.1L210,65.7C210,66.1 209.9,66.4 209.6,66.7C209.3,67 209,67.1 208.6,67.1L208.3,67.1C207.9,67.1 207.6,67 207.3,66.7C207,66.4 206.9,66.1 206.9,65.7L206.9,65.5C206.1,66.7 205,67.3 203.6,67.3C202.5,67.3 201.6,67 201,66.3C200.4,65.6 200,64.6 200,63.4C200,61.9 200.5,60.8 201.6,60C202.6,59.2 204.2,58.8 206.2,58.8L206.6,58.8C206.7,58.8 206.8,58.7 206.8,58.6C206.8,57.9 206.7,57.5 206.4,57.2C206.1,56.9 205.7,56.8 205.1,56.8C204.4,56.8 203.3,57 202,57.3C201.7,57.4 201.4,57.3 201.1,57.1C200.8,56.9 200.7,56.6 200.7,56.3C200.7,55.9 200.8,55.5 201.1,55.2C201.4,54.9 201.7,54.6 202.1,54.5C203.2,54.1 204.2,54 205.1,54ZM206.7,61.5L206.7,61.2C206.7,61.1 206.6,61 206.5,61L206.1,61C205.1,61 204.4,61.2 203.9,61.6C203.4,62 203.1,62.5 203.1,63.1C203.1,63.6 203.2,64 203.5,64.3C203.7,64.6 204.1,64.7 204.5,64.7C205.9,64.7 206.7,63.7 206.7,61.5Z" style="fill:rgb(0,64,152);fill-rule:nonzero;"/>
                        <path d="M218.8,54C220.2,54 221.2,54.5 222,55.6C222.8,56.7 223.1,58.4 223.1,60.6C223.1,62.8 222.7,64.5 221.9,65.6C221.1,66.7 220.1,67.3 218.7,67.3C218.1,67.3 217.6,67.2 217.2,66.9C216.8,66.6 216.3,66.1 215.8,65.4L215.7,65.4L215.7,65.7C215.7,66.1 215.5,66.4 215.3,66.7C215,67 214.7,67.1 214.3,67.1L213.9,67.1C213.5,67.1 213.2,67 212.9,66.7C212.6,66.4 212.5,66.1 212.5,65.7L212.5,49.9C212.5,49.5 212.6,49.2 212.9,48.9C213.2,48.6 213.5,48.5 213.9,48.5L214.5,48.5C214.9,48.5 215.2,48.6 215.5,48.9C215.8,49.2 215.9,49.5 215.9,49.9L215.9,55.8C216.8,54.6 217.7,54 218.8,54ZM217.8,64.4C218.4,64.4 218.8,64.1 219.2,63.5C219.6,62.9 219.7,62 219.7,60.7C219.7,58.2 219.1,57 217.8,57C216.5,57 215.8,58.2 215.8,60.6L215.8,60.8C215.8,63.2 216.5,64.4 217.8,64.4Z" style="fill:rgb(0,64,152);fill-rule:nonzero;"/>
                        <path d="M230.5,54C232.3,54 233.6,54.4 234.3,55.1C235,55.8 235.4,57.2 235.4,59.1L235.4,65.7C235.4,66.1 235.3,66.4 235,66.7C234.7,67 234.4,67.1 234,67.1L233.7,67.1C233.3,67.1 233,67 232.7,66.7C232.4,66.4 232.3,66.1 232.3,65.7L232.3,65.5C231.5,66.7 230.4,67.3 229,67.3C227.9,67.3 227,67 226.4,66.3C225.8,65.6 225.4,64.6 225.4,63.4C225.4,61.9 225.9,60.8 227,60C228,59.2 229.6,58.8 231.6,58.8L232,58.8C232.1,58.8 232.2,58.7 232.2,58.6C232.2,57.9 232.1,57.5 231.8,57.2C231.5,56.9 231.1,56.8 230.5,56.8C229.8,56.8 228.7,57 227.4,57.3C227.1,57.4 226.8,57.3 226.5,57.1C226.2,56.9 226.1,56.6 226.1,56.3C226.1,55.9 226.2,55.5 226.5,55.2C226.8,54.9 227.1,54.6 227.5,54.5C228.6,54.1 229.7,54 230.5,54ZM232.2,61.5L232.2,61.2C232.2,61.1 232.1,61 232,61L231.6,61C230.6,61 229.9,61.2 229.4,61.6C228.9,62 228.6,62.5 228.6,63.1C228.6,63.6 228.7,64 229,64.3C229.2,64.6 229.6,64.7 230,64.7C231.4,64.7 232.2,63.7 232.2,61.5Z" style="fill:rgb(0,64,152);fill-rule:nonzero;"/>
                        <path d="M246,54C246.4,54 246.7,54.2 247,54.5C247.3,54.8 247.4,55.2 247.4,55.6C247.4,55.9 247.3,56.2 247,56.5C246.7,56.7 246.4,56.8 246,56.8L245.7,56.8C244.6,56.8 243.6,57.2 243,58.1C242.3,59 242,60.1 242,61.7L242,65.7C242,66.1 241.9,66.4 241.6,66.7C241.3,67 241,67.1 240.6,67.1L240,67.1C239.6,67.1 239.3,67 239,66.7C238.7,66.4 238.6,66.1 238.6,65.7L238.6,55.7C238.6,55.3 238.7,55 239,54.7C239.3,54.4 239.6,54.3 240,54.3L240.5,54.3C240.9,54.3 241.2,54.4 241.5,54.7C241.8,55 241.9,55.3 241.9,55.7L241.9,56.4C242.5,55.5 243.1,54.9 243.6,54.6C244.2,54.3 244.8,54.1 245.6,54.1L246,54.1L246,54Z" style="fill:rgb(0,64,152);fill-rule:nonzero;"/>
                        <path d="M256.7,64.4C257.1,64.4 257.4,64.5 257.6,64.8C257.9,65.1 258,65.4 258,65.8C258,66.2 257.9,66.5 257.6,66.7C257.3,67 257,67.1 256.6,67.1L250.1,67.1C249.7,67.1 249.4,67 249.1,66.7C248.8,66.4 248.7,66.1 248.7,65.8C248.7,65.4 248.8,65.1 249.1,64.8C249.4,64.5 249.7,64.4 250,64.4L251.7,64.4C251.8,64.4 251.9,64.3 251.9,64.2L251.9,57.1C251.9,57 251.8,56.9 251.7,56.9L250.8,56.9C250.4,56.9 250.1,56.8 249.8,56.5C249.5,56.2 249.4,55.9 249.4,55.6C249.4,55.2 249.5,54.9 249.8,54.7C250.1,54.4 250.4,54.3 250.7,54.3L253.9,54.3C254.3,54.3 254.6,54.4 254.9,54.7C255.2,55 255.3,55.3 255.3,55.7L255.3,64.3C255.3,64.4 255.4,64.5 255.5,64.5L256.7,64.5L256.7,64.4ZM253,48.3L254.1,48.3C254.5,48.3 254.8,48.4 255.1,48.7C255.4,49 255.5,49.3 255.5,49.7L255.5,50.1C255.5,50.5 255.4,50.8 255.1,51.1C254.8,51.4 254.5,51.5 254.1,51.5L253,51.5C252.6,51.5 252.3,51.4 252,51.1C251.7,50.8 251.6,50.5 251.6,50.1L251.6,49.7C251.6,49.3 251.7,49 252,48.7C252.3,48.4 252.6,48.3 253,48.3Z" style="fill:rgb(0,64,152);fill-rule:nonzero;"/>
                    </g>
                    <g>
                        <g>
                            <path d="M152.4,55.9C152,55.9 151.7,56 151.5,56.3C151.3,56.5 151.3,57.1 151.3,57.8L151.3,58.1C151.3,58.2 151.4,58.3 151.5,58.3L152.9,58.3C153.2,58.3 153.4,58.4 153.6,58.6C153.8,58.8 153.9,59 153.9,59.3C153.9,59.6 153.8,59.8 153.6,60C153.4,60.2 153.2,60.3 152.9,60.3L151.5,60.3C151.4,60.3 151.3,60.4 151.3,60.5L151.3,66.3C151.3,66.6 151.2,66.8 151,67C150.8,67.2 150.6,67.3 150.3,67.3L149.9,67.3C149.6,67.3 149.4,67.2 149.2,67C149,66.8 148.9,66.6 148.9,66.3L148.9,60.5C148.9,60.4 148.8,60.3 148.7,60.3L148,60.3C147.7,60.3 147.5,60.2 147.3,60C147.1,59.8 147,59.6 147,59.3C147,59 147.1,58.8 147.3,58.6C147.5,58.4 147.7,58.3 148,58.3L148.7,58.3C148.8,58.3 148.9,58.2 148.9,58.1L148.9,57.5C148.9,56.3 149.1,55.4 149.6,54.8C150.1,54.2 150.8,54 151.9,54C152.3,54 152.6,54 152.9,54.1C153.2,54.1 153.4,54.3 153.6,54.5C153.8,54.7 153.9,55 153.9,55.3C153.9,55.5 153.8,55.7 153.6,55.9C153.4,56 153.2,56.1 152.9,56.1C152.7,55.9 152.6,55.9 152.4,55.9Z" style="fill:rgb(0,64,152);fill-rule:nonzero;"/>
                            <path d="M154.8,62.5C154.8,59.3 156.1,57.7 158.7,57.7C161.3,57.7 162.6,59.3 162.6,62.5C162.6,65.7 161.3,67.3 158.7,67.3C156.1,67.3 154.8,65.7 154.8,62.5ZM157.7,64.8C157.9,65.2 158.3,65.4 158.8,65.4C159.3,65.4 159.7,65.2 159.9,64.8C160.1,64.4 160.2,63.6 160.2,62.5C160.2,61.4 160.1,60.6 159.9,60.2C159.7,59.8 159.3,59.6 158.8,59.6C158.3,59.6 157.9,59.8 157.7,60.2C157.5,60.6 157.4,61.4 157.4,62.5C157.3,63.7 157.4,64.4 157.7,64.8Z" style="fill:rgb(0,64,152);fill-rule:nonzero;"/>
                            <path d="M169.7,57.7C170,57.7 170.2,57.8 170.4,58.1C170.6,58.3 170.7,58.6 170.7,58.9C170.7,59.1 170.6,59.4 170.4,59.5C170.2,59.7 170,59.7 169.7,59.7L169.5,59.7C168.7,59.7 168,60 167.5,60.6C167,61.2 166.8,62.1 166.8,63.2L166.8,66.1C166.8,66.4 166.7,66.6 166.5,66.8C166.3,67 166.1,67.1 165.8,67.1L165.4,67.1C165.1,67.1 164.9,67 164.7,66.8C164.5,66.6 164.4,66.4 164.4,66.1L164.4,58.9C164.4,58.6 164.5,58.4 164.7,58.2C164.9,58 165.1,57.9 165.4,57.9L165.8,57.9C166.1,57.9 166.3,58 166.5,58.2C166.7,58.4 166.8,58.6 166.8,58.9L166.8,59.4C167.2,58.8 167.6,58.4 168,58.1C168.4,57.9 168.9,57.7 169.5,57.7L169.7,57.7Z" style="fill:rgb(0,64,152);fill-rule:nonzero;"/>
                        </g>
                    </g>
                </g>
            </g>
            <g>
                <path d="M273.4,0C267.8,0 263.3,4.5 263.3,10.1C263.3,15.7 267.8,20.2 273.4,20.2C279,20.2 283.5,15.7 283.5,10.1C283.5,4.5 278.9,0 273.4,0ZM271.5,10.1C272.1,10.3 272.5,10.7 272.8,11.1C273.1,11.5 273.2,12 273.2,12.6L273.2,14.3C273.2,15 273.3,15.5 273.4,15.6C273.5,15.7 273.9,15.8 274.6,15.8L274.7,15.8C274.9,15.8 275.1,15.9 275.2,16C275.3,16.1 275.4,16.3 275.4,16.5C275.4,16.7 275.3,16.9 275.2,17C275.1,17.1 274.9,17.2 274.7,17.2L273.8,17.2C273,17.2 272.4,17 272,16.6C271.6,16.2 271.4,15.6 271.4,14.7L271.4,12.4C271.4,11.8 271.3,11.4 271.1,11.1C270.9,10.8 270.6,10.7 270.2,10.6C270,10.6 269.8,10.5 269.7,10.4C269.6,10.3 269.5,10.1 269.5,9.9C269.5,9.7 269.6,9.5 269.7,9.4C269.8,9.3 270,9.2 270.2,9.2C270.6,9.2 270.9,9 271.1,8.7C271.3,8.4 271.4,8 271.4,7.4L271.4,5.3C271.4,4.4 271.6,3.8 272,3.4C272.4,3 273,2.8 273.8,2.8L274.7,2.8C274.9,2.8 275.1,2.9 275.2,3C275.3,3.1 275.4,3.3 275.4,3.5C275.4,3.7 275.3,3.9 275.2,4C275.1,4.1 274.9,4.2 274.7,4.2L274.6,4.2C274,4.2 273.6,4.3 273.4,4.4C273.3,4.5 273.2,5 273.2,5.7L273.2,7.4C273.2,8 273.1,8.5 272.8,8.9C272.5,9.5 272.1,9.8 271.5,10.1Z" style="fill:rgb(0,64,152);fill-rule:nonzero;"/>
                <path d="M273.4,23.6C267.8,23.6 263.3,28.1 263.3,33.7C263.3,39.3 267.8,43.8 273.4,43.8C279,43.8 283.5,39.3 283.5,33.7C283.5,28.1 278.9,23.6 273.4,23.6ZM274.7,36.2L273.3,39.5C273.2,39.7 273,39.9 272.8,40.1C272.6,40.2 272.3,40.3 272.1,40.3L272,40.3C271.8,40.3 271.6,40.2 271.4,40C271.3,39.8 271.2,39.6 271.2,39.4L271.8,36.2C271.8,36 272,35.7 272.2,35.6C272.4,35.4 272.6,35.4 272.9,35.4L274.1,35.4C274.3,35.4 274.5,35.5 274.6,35.7C274.8,35.8 274.8,36 274.7,36.2ZM274.9,31.4C274.9,31.6 274.8,31.8 274.6,32C274.4,32.2 274.2,32.3 274,32.3L273,32.3C272.8,32.3 272.5,32.2 272.4,32C272.2,31.8 272.1,31.6 272.1,31.4L272.1,30.2C272.1,30 272.2,29.8 272.4,29.6C272.6,29.4 272.8,29.3 273,29.3L274,29.3C274.2,29.3 274.4,29.4 274.6,29.6C274.8,29.8 274.9,30 274.9,30.2L274.9,31.4Z" style="fill:rgb(0,64,152);fill-rule:nonzero;"/>
                <path d="M273.4,47.1C267.8,47.1 263.3,51.6 263.3,57.2C263.3,62.8 267.8,67.3 273.4,67.3C279,67.3 283.5,62.8 283.5,57.2C283.5,51.6 278.9,47.1 273.4,47.1ZM275.4,63.6C275.4,63.8 275.3,64 275.1,64.2C274.9,64.4 274.7,64.5 274.5,64.5L271.7,64.5C271.5,64.5 271.3,64.4 271.2,64.3C271.1,64.2 271,64 271,63.8C271,63.6 271.1,63.4 271.2,63.3C271.3,63.2 271.5,63.1 271.7,63.1L273.4,63.1C273.5,63.1 273.5,63.1 273.5,63L273.5,51.6C273.5,51.5 273.5,51.5 273.4,51.5L271.7,51.5C271.5,51.5 271.3,51.4 271.2,51.3C271.1,51.2 271,51 271,50.8C271,50.6 271.1,50.4 271.2,50.3C271.3,50.2 271.5,50.1 271.7,50.1L274.5,50.1C274.7,50.1 274.9,50.2 275.1,50.4C275.3,50.6 275.4,50.8 275.4,51L275.4,63.6Z" style="fill:rgb(0,64,152);fill-rule:nonzero;"/>
            </g>
        </g>
    </g>
</svg>
